Coordinates
version=1
nRows=65
nColumns=12
inDegrees=yes

Units are S.I. units (second, meters, Newtons, ...)
Angles are in degrees

endheader
time	SC_y	SC_z	SC_x	AC_y	AC_z	AC_x	GH_y	GH_z	GH_yy	EL_x	PS_y
       0.0              -56.13          31.73          3.767          61.68          4.763          11.44          103.0         -7.892         -151.1          106.0          128.6
    0.0404              -56.13          31.73          3.773          61.68          4.761          11.44          103.0         -7.879         -151.1          106.0          128.6
    0.0808              -56.13          31.73           3.78          61.68          4.759          11.44          103.0         -7.864         -151.1          106.0          128.6
    0.1212              -56.12          31.73          3.787          61.67          4.756          11.44          103.0         -7.849         -151.1          106.0          128.6
    0.1616              -56.12          31.73          3.794          61.67          4.754          11.43          103.0         -7.832         -151.1          106.0          128.6
     0.202              -56.12          31.73          3.802          61.67          4.751          11.43          102.9         -7.815         -151.1          106.0          128.6
    0.2424              -56.11          31.73           3.81          61.67          4.748          11.43          102.9         -7.796         -151.1          106.0          128.6
    0.2828              -56.11          31.73          3.819          61.66          4.745          11.43          102.9         -7.776         -151.1          106.0          128.6
    0.3232               -56.1          31.73          3.829          61.66          4.742          11.43          102.9         -7.754         -151.1          106.0          128.6
    0.3636               -56.1          31.73          3.839          61.66          4.739          11.43          102.8         -7.731         -151.1          106.0          128.6
     0.404              -56.09          31.73           3.85          61.65          4.735          11.43          102.8         -7.707         -151.1          106.0          128.6
    0.4444              -56.09          31.73          3.862          61.65          4.731          11.43          102.8          -7.68         -151.1          105.9          128.7
    0.4848              -56.08          31.73          3.875          61.65          4.726          11.43          102.7         -7.651         -151.1          105.9          128.7
    0.5252              -56.08          31.73          3.889          61.64          4.722          11.43          102.7          -7.62         -151.1          105.9          128.7
    0.5656              -56.07          31.73          3.904          61.64          4.717          11.43          102.7         -7.587         -151.1          105.9          128.7
     0.606              -56.06          31.73           3.92          61.63          4.711          11.43          102.6          -7.55         -151.1          105.9          128.7
    0.6464              -56.05          31.73          3.938          61.63          4.705          11.42          102.6         -7.511         -151.1          105.9          128.7
    0.6868              -56.04          31.74          3.957          61.62          4.699          11.42          102.5         -7.468         -151.1          105.9          128.7
    0.7272              -56.03          31.74          3.978          61.62          4.692          11.42          102.5         -7.421         -151.1          105.9          128.7
    0.7676              -56.02          31.74          4.001          61.61          4.684          11.42          102.4         -7.369         -151.1          105.9          128.7
     0.808              -56.01          31.74          4.026           61.6          4.675          11.42          102.3         -7.313         -151.1          105.8          128.7
    0.8484               -56.0          31.74          4.054          61.59          4.666          11.42          102.3          -7.25         -151.1          105.8          128.7
    0.8888              -55.98          31.74          4.085          61.59          4.656          11.41          102.2         -7.182         -151.1          105.8          128.7
    0.9292              -55.97          31.74          4.119          61.58          4.644          11.41          102.1         -7.105         -151.1          105.8          128.7
    0.9696              -55.95          31.75          4.157          61.56          4.631          11.41          102.0         -7.021         -151.1          105.8          128.7
      1.01              -55.93          31.75          4.199          61.55          4.617           11.4          101.9         -6.926         -151.1          105.7          128.8
      1.05              -55.91          31.75          4.247          61.54          4.601           11.4          101.8          -6.82         -151.1          105.7          128.8
     1.091              -55.88          31.75            4.3          61.52          4.583           11.4          101.6         -6.701         -151.1          105.7          128.8
     1.131              -55.86          31.76           4.36           61.5          4.563          11.39          101.5         -6.567         -151.1          105.6          128.8
     1.172              -55.82          31.76          4.428          61.48           4.54          11.39          101.3         -6.414         -151.1          105.6          128.8
     1.212              -55.79          31.76          4.506          61.46          4.514          11.38          101.1          -6.24         -151.2          105.5          128.9
     1.252              -55.74          31.77          4.596          61.44          4.484          11.38          100.8          -6.04         -151.2          105.5          128.9
     1.293               -55.7          31.77          4.699          61.41          4.449          11.37          100.5         -5.809         -151.2          105.4          128.9
     1.333              -55.64          31.78          4.819          61.37          4.408          11.36          100.2          -5.54         -151.2          105.3          129.0
     1.374              -55.57          31.79          4.959          61.33          4.361          11.35          99.85         -5.226         -151.2          105.2          129.0
     1.414               -55.5           31.8          5.125          61.28          4.305          11.34          99.41         -4.856         -151.2          105.1          129.1
     1.454              -55.41          31.81          5.322          61.22          4.239          11.32          98.89         -4.416         -151.2          105.0          129.1
     1.495              -55.29          31.82          5.558          61.15          4.159           11.3          98.26         -3.888         -151.3          104.9          129.2
     1.535              -55.16          31.83          5.843          61.07          4.063          11.28           97.5          -3.25         -151.3          104.7          129.3
     1.576               -55.0          31.85          6.191          60.97          3.946          11.26          96.56         -2.471         -151.3          104.5          129.4
     1.616               -54.8          31.87          6.622          60.84          3.801          11.22          95.42         -1.509         -151.4          104.2          129.6
     1.656              -54.55           31.9          7.158          60.68           3.62          11.18          93.98        -0.3088         -151.5          103.9          129.7
     1.697              -54.23          31.94          7.834          60.48          3.392          11.13          92.18          1.203         -151.5          103.4          130.0
     1.737              -53.83          31.98          8.693          60.23          3.103          11.07          89.89          3.124         -151.6          102.9          130.2
     1.778              -53.31          32.04          9.792          59.91          2.732          10.99          86.95          5.583         -151.8          102.2          130.6
     1.818              -52.65          32.11           11.2          59.49          2.256          10.88          83.18          8.739         -151.9          101.3          131.1
     1.858              -51.81           32.2          13.01          58.96          1.649          10.75          78.37          12.77         -152.1          100.2          131.7
     1.899              -50.75          32.32          15.27           58.3         0.8849          10.58          72.32          17.84         -152.4          98.72          132.4
     1.939              -49.46          32.46          18.03          57.48       -0.04594          10.37          64.95          24.01         -152.7          96.97          133.3
      1.98              -47.96          32.63          21.23          56.54         -1.125          10.13           56.4          31.17         -153.1          94.94          134.4
      2.02              -46.33          32.81           24.7          55.52         -2.293          9.874          47.15          38.93         -153.5          92.75          135.5
      2.06              -44.71          32.99          28.17           54.5         -3.462          9.615          37.89          46.68         -153.9          90.55          136.7
     2.101              -43.21          33.16          31.37          53.56         -4.541          9.376          29.35          53.84         -154.2          88.53          137.7
     2.141              -41.92           33.3          34.13          52.75         -5.472           9.17          21.98          60.01         -154.5          86.78          138.7
     2.182              -40.86          33.42           36.4          52.08         -6.235          9.001          15.93          65.08         -154.8          85.34          139.4
     2.222              -40.02          33.51           38.2          51.55         -6.843          8.866          11.11          69.11         -155.0           84.2          140.0
     2.262              -39.36          33.58          39.61          51.14         -7.319          8.761          7.346          72.27         -155.2          83.31          140.5
     2.303              -38.84          33.64          40.71          50.82         -7.689          8.679          4.411          74.73         -155.3          82.61          140.8
     2.343              -38.44          33.68          41.57          50.56         -7.979          8.615          2.117          76.65         -155.4          82.07          141.1
     2.384              -38.12          33.72          42.24          50.37         -8.206          8.564         0.3132          78.16         -155.5          81.64          141.3
     2.424              -37.87          33.75          42.78          50.21         -8.387          8.524         -1.119          79.36         -155.5           81.3          141.5
     2.464              -37.67          33.77          43.21          50.08         -8.532          8.492         -2.267          80.32         -155.6          81.03          141.7
     2.505              -37.51          33.79          43.56          49.98          -8.65          8.466         -3.198           81.1         -155.6          80.81          141.8
     2.545              -37.37           33.8          43.84          49.89         -8.746          8.445          -3.96          81.74         -155.6          80.63          141.9
     2.586              -37.26          33.81          44.08          49.83         -8.825          8.427         -4.589          82.27         -155.7          80.48          141.9
